{
  "accessors": [
    {
      "bufferView": 2,
      "componentType": 5126,
      "count": 3717,
      "max": [
        0.7916889786720276,
        0.9795659780502319,
        1.6700589656829834
      ],
      "min": [
        -0.7916889786720276,
        -0.23845000565052032,
        0.001505000051110983
      ],
      "type": "VEC3"
    },
    {
      "bufferView": 2,
      "byteOffset": 44604,
      "componentType": 5126,
      "count": 3717,
      "max": [
        0.9999982118606567,
        0.9999880790710449,
        1.0
      ],
      "min": [
        -0.9999982118606567,
        -0.9999819993972778,
        -1.0
      ],
      "type": "VEC3"
    },
    {
      "bufferView": 1,
      "componentType": 5126,
      "count": 3717,
      "max": [
        1.5353909730911255,
        0.9961000084877014
      ],
      "min": [
        0.006016000173985958,
        0.00761799979954958
      ],
      "type": "VEC2"
    },
    {
      "bufferView": 0,
      "componentType": 5125,
      "count": 11463,
      "type": "SCALAR"
    }
  ],
  "asset": {
    "extras": {
      "author": "omninity (https://sketchfab.com/omninity)",
      "license": "CC-BY-4.0 (http://creativecommons.org/licenses/by/4.0/)",
      "source": "https://sketchfab.com/3d-models/zero-zero-series-mega-man-x-dive-35ceef1fa7454737afb7e0da1cc99b4a",
      "title": "Zero (Zero Series)- Mega Man X DiVE"
    },
    "generator": "Sketchfab-14.81.0",
    "version": "2.0"
  },
  "bufferViews": [
    {
      "buffer": 0,
      "byteLength": 45852,
      "name": "floatBufferViews",
      "target": 34963
    },
    {
      "buffer": 0,
      "byteLength": 29736,
      "byteOffset": 45852,
      "byteStride": 8,
      "name": "floatBufferViews",
      "target": 34962
    },
    {
      "buffer": 0,
      "byteLength": 89208,
      "byteOffset": 75588,
      "byteStride": 12,
      "name": "floatBufferViews",
      "target": 34962
    }
  ],
  "buffers": [
    {
      "byteLength": 164796,
      "uri": "scene.bin"
    }
  ],
  "extensionsUsed": [
    "KHR_materials_specular"
  ],
  "images": [
    {
      "uri": "textures/Zero_MMZ_baseColor.png"
    },
    {
      "uri": "textures/Zero_MMZ_metallicRoughness.png"
    },
    {
      "uri": "textures/Zero_MMZ_specularf0.png"
    }
  ],
  "materials": [
    {
      "doubleSided": true,
      "extensions": {
        "KHR_materials_specular": {
          "specularColorFactor": [
            1.0,
            1.0,
            1.0
          ],
          "specularFactor": 0.0,
          "specularTexture": {
            "index": 2
          }
        }
      },
      "name": "Zero_MMZ",
      "pbrMetallicRoughness": {
        "baseColorTexture": {
          "index": 0
        },
        "metallicFactor": 0.0,
        "metallicRoughnessTexture": {
          "index": 1
        }
      }
    }
  ],
  "meshes": [
    {
      "name": "Object_0",
      "primitives": [
        {
          "attributes": {
            "NORMAL": 1,
            "POSITION": 0,
            "TEXCOORD_0": 2
          },
          "indices": 3,
          "material": 0,
          "mode": 4
        }
      ]
    }
  ],
  "nodes": [
    {
      "children": [
        1
      ],
      "matrix": [
        1.1645960807800293,
        0.0,
        0.0,
        0.0,
        0.0,
        2.5859227665404145e-16,
        -1.1645960807800293,
        0.0,
        0.0,
        1.1645960807800293,
        2.5859227665404145e-16,
        0.0,
        0.0,
        0.0,
        0.0,
        1.0
      ],
      "name": "Sketchfab_model"
    },
    {
      "children": [
        2
      ],
      "name": "5aa2c6f87fb94cf981d4798a04fcb53f.obj.cleaner.materialmerger.gles"
    },
    {
      "mesh": 0,
      "name": "Object_2"
    }
  ],
  "samplers": [
    {
      "magFilter": 9729,
      "minFilter": 9987,
      "wrapS": 10497,
      "wrapT": 10497
    }
  ],
  "scene": 0,
  "scenes": [
    {
      "name": "Sketchfab_Scene",
      "nodes": [
        0
      ]
    }
  ],
  "textures": [
    {
      "sampler": 0,
      "source": 0
    },
    {
      "sampler": 0,
      "source": 1
    },
    {
      "sampler": 0,
      "source": 2
    }
  ]
}
